# xmcd
#
# Track frame offsets:
#	150
#	16060
#	32804
#	48155
#	66132
#	84557
#	103612
#	119262
#	136163
#	154335
#	172476
#	187903
#
# Disc length: 2737 seconds
#
# Revision: 0
# Processed by: cddbd v1.5.2PL0 Copyright (c) Steve Scherf et al.
# Submitted via: EasyCDDAExtractor 8.2.2.1
#
DISCID=9a0aaf0c
DTITLE=Various Artist - GAMMY LOVING YOU DISC 2
DYEAR=2009
DGENRE=pop
TTITLE0=เต้ วิทย์สรัช สุขวัฒนศิริ - ความหวังเล็กๆ
TTITLE1=Bowling - ที่คิดถึง...เพราะรักเธอใช่ไหม
TTITLE2=AOF ปองศักดิ์ รัตนพงษ์ - เหตุผลร้อยแปด
TTITLE3=DA endorphine - การเดินทางที่แสนพิเศษ
TTITLE4=KAL - ใจหายไปเลย
TTITLE5=บัวชมพู ฟอร์ด , ZEAL - หมดชีวิต(ฉันให้เธอ)
TTITLE6=เบล สุพล พัวศิริรักษ์ - หยุดความคิดไม่ได้
TTITLE7=ปนัดดา เรืองวุฒิ , โอ๊ค สมิทธิ์ อารยะสกุล - ระหว่างทาง
TTITLE8=บี้ สุกฤษฏิ์ วิเศษแก้ว - รักแท้มีอยู่จริง
TTITLE9=โบ สุนิตา ลีติกุล - รักเธอข้างเดียว
TTITLE10=ใหม่ เจริญปุระ - อยากได้ยินว่ารักกัน
TTITLE11=แก้ม THE STAR 4 - ไม่เหลือเหตุผลจะรัก
EXTD=
EXTT0=
EXTT1=
EXTT2=
EXTT3=
EXTT4=
EXTT5=
EXTT6=
EXTT7=
EXTT8=
EXTT9=
EXTT10=
EXTT11=
PLAYORDER=
